<?xml version="1.0" standalone="no"?><!DOCTYPE svg PUBLIC "-//W3C//DTD SVG 1.1//EN" "http://www.w3.org/Graphics/SVG/1.1/DTD/svg11.dtd"><svg class="icon" width="48px" height="48.00px" viewBox="0 0 1024 1024" version="1.1" xmlns="http://www.w3.org/2000/svg"><path fill="#2c2c2c" d="M512 0c-194.433231 0-352.0032 157.569969-352.0032 352.0032 0 128.98046 118.02388 265.681726 160.99006 385.753565 64.101118 179.032579 56.9947 286.243235 191.01314 286.243235 136.00496 0 126.871063-106.678186 191.01314-285.50597 43.109538-120.317594 160.99006-258.49339 160.99006-386.49083 0-194.433231-157.631407-352.0032-352.0032-352.0032zM594.942341 869.604368l-158.655387 19.803764c-5.672847-16.383672-11.734805-35.552569-19.127937-60.578628-0.102398-0.327673-0.225275-0.675826-0.286714-0.98302l198.01716-24.739345c-2.805704 9.441091-5.816204 19.353213-8.437591 28.261835-4.198316 14.376672-7.946081 26.848743-11.48905 38.235395zM407.554089 797.045179c-5.816204-19.271295-12.390152-39.546089-19.680886-61.049659l248.49935 0c-3.932081 11.48905-7.864163 22.99858-11.263775 33.893722l-217.554689 27.176416zM512 959.9808c-32.419192 0-47.328333-3.747765-63.896322-39.99664l135.615848-16.99806c-19.639927 52.919262-33.955161 56.9947-71.719526 56.9947zM661.50101 671.9968l-298.653867 0c-15.933121-34.549069-35.081538-69.118618-53.943241-102.950901-41.757885-74.709546-84.887902-151.99952-84.887902-217.042699 0-158.819224 129.185256-288.00448 288.00448-288.00448s288.00448 129.185256 288.00448 288.00448c0 64.572149-43.191456 142.271715-84.9903 217.431811-18.697866 33.688926-37.702926 68.197036-53.49269 102.561789zM512 160.00704c8.806224 0 15.99456 7.167857 15.99456 15.99456s-7.167857 15.99456-15.99456 15.99456c-88.226075 0-160.00704 71.780964-160.00704 160.00704 0 8.826703-7.167857 15.99456-15.99456 15.99456s-15.99456-7.167857-15.99456-15.99456c0-105.879482 86.116678-191.99616 191.99616-191.99616z" /></svg>