<?xml version="1.0" standalone="no"?><!DOCTYPE svg PUBLIC "-//W3C//DTD SVG 1.1//EN" "http://www.w3.org/Graphics/SVG/1.1/DTD/svg11.dtd"><svg t="1481895142215" class="icon" style="" viewBox="0 0 1024 1024" version="1.1" xmlns="http://www.w3.org/2000/svg" p-id="2760" xmlns:xlink="http://www.w3.org/1999/xlink" width="48" height="48"><defs><style type="text/css"></style></defs><path d="M799.99872 0.020479c-65.697212 0-117.304748 45.115635-154.351586 114.74485l-0.675813-0.389104c-53.819287 105.365385-133.954322 173.622495-221.728091 173.622495l-295.227871 0c-71.779529 0-127.99488 70.305028-127.99488 160.00384 0 89.76025 56.215351 160.00384 127.99488 160.00384 35.285629 0.122875 63.833607 28.670853 63.833607 63.99744l0 287.99872c0 35.367545 28.670853 63.99744 63.99744 63.99744l127.99488 0c35.326587 0 63.99744-28.629895 63.99744-63.99744l0-32.00896c0-32.00896-32.00896-46.303428-32.00896-63.99744l0-224.00128c0-0.737251 0.51198-1.24923 0.573417-1.986481 0.327667-4.566857 1.576897-8.806048 3.583857-12.635655 0.573417-1.064917 1.187792-1.884085 1.884085-2.826127 2.559898-3.809128 5.795608-6.942442 9.727611-9.379465 0.184313-0.122875 0.24575-0.327667 0.450542-0.450542 0.122875 0 0.225271-0.122875 0.348146-0.122875 2.559898-1.433543 5.631775-1.76121 8.519339-2.559898 80.769889 8.580777 153.880565 73.766009 204.054558 171.922723l0.798688-0.389104c37.087796 69.403944 88.572457 114.396704 154.208232 114.396704 147.060998 0 224.00128-225.373385 224.00128-447.982081s-76.919803-447.982081-224.00128-447.982081zM639.99488 448.00256c0-33.176273 1.945522-65.24667 5.24267-96.0064l90.74325 0c35.326587 0 63.99744 43.00628 63.99744 96.0064 0 53.061558-28.670853 96.0064-63.99744 96.0064l-90.74325 0c-3.297148-30.75973-5.24267-62.74821-5.24267-96.0064zM64.017919 448.00256c0-53.00012 28.670853-96.0064 63.99744-96.0064l224.431343 0c-19.844326 23.325787-32.439022 57.177873-32.439022 96.0064 0 38.869485 12.615175 72.74205 32.439022 96.0064l-224.431343 0c-35.326587 0-63.99744-42.944842-63.99744-96.0064zM383.841286 959.982081l-127.99488 0 0-287.99872c0-23.325787-6.24615-45.115635-17.182033-63.99744l22.342786 0 0 0.389104 96.25215 0c-3.420023 9.952882-5.406504 20.520139-5.406504 31.619855l0 224.00128c0 30.821167 17.222991 51.320827 27.483061 63.546898 1.413063 1.699772 3.071877 3.420023 4.50542 5.304108l0 27.134915zM423.24323 544.377585l-7.229151 0 0-0.389104c-35.326587 0-63.99744-42.944842-63.99744-96.0064 0-53.00012 28.670853-96.0064 63.99744-96.0064l7.229151 0c60.352146 0 116.854206-23.735371 166.577657-64.570857-9.154194 51.525619-13.823447 106.082157-13.823447 160.577257 0 54.679413 4.669253 109.440742 13.884885 160.986841-49.764409-40.855966-106.307428-64.611816-166.659574-64.611816zM799.99872 831.987201c-64.570857 0-119.98752-91.869605-145.299788-224.00128l81.302348 0c71.73857 0 127.99488-70.24359 127.99488-160.00384 0-89.698812-56.25631-160.00384-127.99488-160.00384l-81.302348 0c25.312268-132.049758 80.728931-224.00128 145.299788-224.00128 88.388144 0 160.00384 171.922723 160.00384 383.984641s-71.615695 383.984641-160.00384 383.984641z" p-id="2761" fill="#515151"></path></svg>