<?xml version="1.0" standalone="no"?><!DOCTYPE svg PUBLIC "-//W3C//DTD SVG 1.1//EN" "http://www.w3.org/Graphics/SVG/1.1/DTD/svg11.dtd"><svg t="1481895183172" class="icon" style="" viewBox="0 0 1024 1024" version="1.1" xmlns="http://www.w3.org/2000/svg" p-id="3023" xmlns:xlink="http://www.w3.org/1999/xlink" width="48" height="48"><defs><style type="text/css"></style></defs><path d="M738.363 872.258v-132.941c129.893-31.589 215.579-135.843 215.579-265.622v-49.813c0-150.187-125.409-272.377-279.591-272.377h-303.133c-154.154 0-279.591 122.19-279.591 272.377v49.813c0 156.625 128.026 288.991 279.591 288.991h81.518l245.731 132.912c4.025 2.156 8.508 3.248 12.934 3.248 4.771 0 9.515-1.236 13.769-3.708 8.192-4.771 13.194-13.481 13.194-22.88zM706.773 691.574c-12.877 2.213-22.305 13.28-22.305 26.186v109.6l-211.871-114.573c-3.967-2.156-8.422-3.277-12.963-3.277h-88.416c-120.236 0-225.697-110.175-225.697-235.814v-49.813c0-120.868 101.236-219.23 225.697-219.23h303.133c124.461 0 225.697 98.362 225.697 219.23v49.813c0 112.101-75.855 197.643-193.274 217.878z" p-id="3024" fill="#515151"></path></svg>