<?xml version="1.0" standalone="no"?><!DOCTYPE svg PUBLIC "-//W3C//DTD SVG 1.1//EN" "http://www.w3.org/Graphics/SVG/1.1/DTD/svg11.dtd"><svg class="icon" width="48px" height="48.00px" viewBox="0 0 1024 1024" version="1.1" xmlns="http://www.w3.org/2000/svg"><path fill="#2c2c2c" d="M1009.347439 5.119693c-5.304002-3.419955-11.365718-5.119693-17.365998-5.119693-6.184589 0-12.389657 1.761174-17.755095 5.385917l-959.942403 639.961602c-9.891247 6.553207-15.318121 18.103234-14.048437 29.960442 1.208248 11.816251 8.887787 22.014679 19.925844 26.376657l250.352979 100.182149 117.711977 205.99596c5.631662 9.891247 16.096314 15.99392 27.421075 16.137272 0.122873 0 0.225266 0 0.348139 0 11.222367 0 21.66654-5.959322 27.421075-15.543387l66.453613-110.810631 310.212427 124.060396c3.809051 1.535908 7.802412 2.273144 11.877687 2.273144 5.447353 0 10.812791-1.372078 15.686739-4.136712 8.457733-4.730596 14.232746-13.065456 15.871048-22.629042l160.00064-959.942403c2.088835-12.573966-3.481391-25.188889-14.17131-32.131192zM100.376697 664.822831l741.556787-494.398496-539.16509 577.153211c-2.846549-1.699738-5.365438-3.931924-8.519169-5.181129l-193.872528-77.553107zM326.052757 770.063236c-0.061436-0.122873-0.16383-0.184309-0.225266-0.32766l606.130672-648.767474-516.740836 805.143371-89.185049-156.048237zM806.935264 947.429874l-273.289203-109.295202c-6.49177-2.559846-13.249765-3.419955-19.925844-3.809051l420.83875-652.371738-127.603224 765.49647z" /></svg>